<svg xmlns:xlink="http://www.w3.org/1999/xlink" xmlns="http://www.w3.org/2000/svg" class="social-icon" alt="trustwallet instagram" title="trustwallet instagram" width="32"  height="32" ><defs><symbol viewBox="0 0 32 32" fill="none" xmlns="http://www.w3.org/2000/svg" id="social_instagram">
    <path fill-rule="evenodd" clip-rule="evenodd" d="M16 0c4.345 0 4.89.018 6.597.096C24.3.174 25.463.444 26.48.84a7.843 7.843 0 0 1 2.834 1.845A7.843 7.843 0 0 1 31.16 5.52c.395 1.018.666 2.181.744 3.884C31.982 11.11 32 11.655 32 16c0 4.345-.018 4.89-.096 6.597-.078 1.703-.349 2.866-.744 3.884a7.843 7.843 0 0 1-1.845 2.834 7.844 7.844 0 0 1-2.834 1.845c-1.018.396-2.181.666-3.884.744C20.89 31.982 20.345 32 16 32c-4.345 0-4.89-.018-6.597-.096-1.703-.078-2.866-.348-3.884-.744a7.844 7.844 0 0 1-2.834-1.845A7.843 7.843 0 0 1 .84 26.48C.444 25.463.174 24.3.096 22.597.018 20.89 0 20.345 0 16c0-4.345.018-4.89.096-6.597C.174 7.7.444 6.537.84 5.52a7.843 7.843 0 0 1 1.845-2.834A7.843 7.843 0 0 1 5.52.84C6.537.444 7.7.174 9.403.096 11.11.018 11.655 0 16 0zm0 2.883c-4.272 0-4.778.016-6.465.093-1.56.071-2.408.332-2.971.551-.747.29-1.28.637-1.84 1.197a4.957 4.957 0 0 0-1.197 1.84c-.22.563-.48 1.41-.55 2.97-.078 1.688-.094 2.194-.094 6.466s.016 4.778.093 6.465c.071 1.56.332 2.407.551 2.971.29.747.637 1.28 1.197 1.84s1.093.907 1.84 1.197c.563.219 1.41.48 2.97.55 1.688.078 2.193.094 6.466.094s4.779-.016 6.465-.093c1.56-.071 2.407-.332 2.971-.551a4.955 4.955 0 0 0 1.84-1.197c.56-.56.907-1.093 1.197-1.84.219-.564.48-1.41.55-2.97.078-1.688.094-2.194.094-6.466s-.016-4.778-.093-6.465c-.071-1.56-.332-2.408-.551-2.971a4.956 4.956 0 0 0-1.197-1.84 4.957 4.957 0 0 0-1.84-1.197c-.564-.219-1.41-.48-2.97-.55-1.688-.078-2.194-.094-6.466-.094zm0 4.9a8.216 8.216 0 1 1 0 16.433 8.216 8.216 0 0 1 0-16.432zm0 13.55a5.333 5.333 0 1 0 0-10.666 5.333 5.333 0 0 0 0 10.666zM26.46 7.46a1.92 1.92 0 1 1-3.84 0 1.92 1.92 0 0 1 3.84 0z" fill="#5a749a"></path>
  </symbol></defs>
<use xlink:href="#social_instagram"></use>
</svg>