<svg xmlns:xlink="http://www.w3.org/1999/xlink" xmlns="http://www.w3.org/2000/svg" class="social-icon" alt="trustwallet github" title="trustwallet github" width="32"  height="31" ><defs><symbol viewBox="0 0 32 31" fill="none" xmlns="http://www.w3.org/2000/svg" id="social_github">
    <path fill-rule="evenodd" clip-rule="evenodd" d="M15.999 0C7.164 0 0 7.115 0 15.894c0 7.02 4.584 12.977 10.943 15.079.8.146 1.092-.345 1.092-.766 0-.378-.014-1.377-.022-2.703-4.451.96-5.39-2.13-5.39-2.13-.727-1.836-1.776-2.325-1.776-2.325-1.453-.986.11-.966.11-.966 1.605.112 2.45 1.638 2.45 1.638 1.428 2.428 3.745 1.727 4.657 1.32.145-1.027.559-1.728 1.016-2.125-3.553-.401-7.288-1.764-7.288-7.854 0-1.735.623-3.153 1.647-4.265-.165-.402-.714-2.017.156-4.206 0 0 1.344-.427 4.4 1.63a15.457 15.457 0 0 1 4.006-.536c1.359.007 2.728.183 4.006.535 3.054-2.056 4.395-1.629 4.395-1.629.873 2.189.324 3.804.159 4.206 1.026 1.111 1.645 2.53 1.645 4.265 0 6.105-3.741 7.449-7.305 7.842.574.49 1.086 1.46 1.086 2.943 0 2.125-.02 3.838-.02 4.36 0 .425.288.92 1.1.764C27.42 28.865 32 22.912 32 15.894 32 7.114 24.836 0 15.999 0z" fill="#5a749a"></path>
  </symbol></defs>
<use xlink:href="#social_github"></use>
</svg>