<svg xmlns:xlink="http://www.w3.org/1999/xlink" xmlns="http://www.w3.org/2000/svg" class="social-icon" alt="trustwallet telegram" title="trustwallet telegram" width="36"  height="32" ><defs><symbol viewBox="0 0 36 32" fill="none" xmlns="http://www.w3.org/2000/svg" id="social_telegram">
    <path fill-rule="evenodd" clip-rule="evenodd" d="M21.226 25.987l-3.534 3.39A1 1 0 0 1 16 28.655v-7.05a2.054 2.054 0 0 1 0-.564V21h.006c.138-.92.823-1.835 1.492-2.4 3.085-3.152 6.357-5.83 9.28-9.147.79-1.975-1.54-.31-2.31.2-4.223 3.018-8.343 6.22-12.795 8.873-2.275 1.298-4.926.189-7.2-.536-2.037-.875-5.024-1.757-3.267-3.091 3.608-2.06 7.634-3.78 11.396-5.51 6.473-2.83 12.971-5.613 19.535-8.203 1.277-.441 3.572-.872 3.797 1.09-.123 2.778-.63 5.54-.978 8.302-.882 6.074-1.902 12.126-2.897 18.18-.342 2.016-2.778 3.06-4.337 1.77-2.162-1.515-4.335-3.021-6.496-4.54z" fill="#5a749a"></path>
  </symbol></defs>
<use xlink:href="#social_telegram"></use>
</svg>